<svg version="1.1" id="Layer_1" xmlns="http://www.w3.org/2000/svg" xmlns:xlink="http://www.w3.org/1999/xlink" x="0px" y="0px"
     width="100%" viewBox="0 0 1024 1024" enable-background="new 0 0 1024 1024" xml:space="preserve">

<!-- Sem clipPath - apenas ícone puro para maskable Android -->
<!-- Fundo verde (sem borda arredondada) -->
<rect x="0" y="0" width="1024" height="1024" fill="#3AB54A"/>

<!-- Ícone principal (V + wifi) cor escura -->
<path fill="#08122B" opacity="1.000000" stroke="none" 
    d="
M415.889740,248.989182 
    C444.136658,251.162689 462.226135,266.718750 473.780396,290.935883 
    C478.271240,300.348389 480.280060,310.441864 480.046539,320.978149 
    C479.836151,330.471497 479.935852,339.973877 480.024475,349.471069 
    C480.117126,359.400116 485.657867,364.938446 495.536621,364.979858 
    C510.033356,365.040619 524.530701,365.043030 539.027405,364.980530 
    C549.567200,364.935120 554.928345,359.494904 554.984741,348.860413 
    C555.039551,338.529510 555.419006,328.177460 554.914124,317.871033 
    C553.706970,293.228333 574.263855,258.341980 609.192749,250.898941 
    C613.690857,249.940445 618.413879,249.688309 623.031677,249.696640 
    C660.177246,249.763702 697.329224,249.611679 734.465027,250.295380 
    C751.876587,250.615967 769.342102,250.619171 786.619507,254.478531 
    C815.045715,260.828217 840.351074,286.761261 844.962158,315.533630 
    C845.508362,318.941742 846.524292,322.320129 846.668030,325.739807 
    C847.581482,347.470551 839.342529,366.306244 827.454590,383.757996 
    C805.924194,415.364990 784.163391,446.815247 762.442810,478.292297 
    C747.624512,499.766724 732.701965,521.169189 717.841797,542.614685 
    C689.229187,583.907104 660.739197,625.285095 631.982239,666.476624 
    C613.052307,693.591980 594.302063,720.863403 574.415283,747.269592 
    C560.512939,765.729492 541.158936,775.888733 517.763977,777.783997 
    C488.599457,780.146545 465.336060,768.807800 447.714935,746.333801 
    C434.496277,729.474792 422.524414,711.621826 410.317200,693.989990 
    C388.729797,662.809753 367.355621,631.481628 345.950073,600.175842 
    C330.921814,578.196838 316.052917,556.108704 301.000092,534.146606 
    C276.734528,498.742981 252.245895,463.491516 228.109467,428.000336 
    C215.301392,409.166809 202.881439,390.063232 190.594421,370.884125 
    C184.813751,361.860901 181.302887,351.821686 179.794647,341.141754 
    C179.268707,337.417450 178.047607,333.708038 178.082199,330.000580 
    C178.509399,284.198364 211.334473,252.452209 253.152405,249.651260 
    C276.025604,248.119232 299.031708,248.249298 321.978638,248.219376 
    C353.120789,248.178772 384.263611,248.702927 415.889740,248.989182 
z"/>
</svg>
